<?xml version="1.0" encoding="utf-8"?>
<!-- Generator: Adobe Illustrator 20.1.0, SVG Export Plug-In . SVG Version: 6.00 Build 0)  -->
<svg version="1.1" id="Layer_1" xmlns="http://www.w3.org/2000/svg" xmlns:xlink="http://www.w3.org/1999/xlink" x="0px" y="0px"
	 viewBox="0 0 21 21" style="enable-background:new 0 0 21 21;" xml:space="preserve">
<style type="text/css">
	.st0{fill:none;}
	.st1{fill:#B9C1CA;}
</style>
<g id="Group_1" transform="translate(274 265) rotate(180)">
	<rect id="Rectangle_1" x="253" y="244" class="st0" width="21" height="21"/>
	<g id="angle-left" transform="translate(366.54 264.5) rotate(180)">
		<path id="Path_1" class="st1" d="M108.1,11l-8.6,8.6c-0.5,0.5-1.4,0.5-2,0c-0.5-0.5-0.5-1.4,0-2l7.6-7.6l-7.6-7.6
			c-0.5-0.5-0.5-1.4,0-2c0.5-0.5,1.4-0.5,2,0l8.6,8.6C108.7,9.6,108.7,10.4,108.1,11C108.1,11,108.1,11,108.1,11L108.1,11z"/>
	</g>
</g>
</svg>
